<svg enable-background="new 0 0 356.7 322.3" viewBox="0 0 356.7 322.3" xmlns="http://www.w3.org/2000/svg"><path d="m314.5 41.3-6.6 1.9c-3.3-6.6-7.5-10.2-18.1-10.2h-99.3v269.2c0 10.9 4.8 14.8 11.5 14.8l1.3 5.4h-64.4l1.3-5.4c6.3 0 11.8-4.2 11.8-14.8v-269.3h-99c-10.2 0-16 4.2-18.4 10.2l-6.6-1.8 9.5-41.3c2.4.9 7.8 1.5 16 1.5h238.1c4.5 0 10.9-.6 13.3-1.5zm-35.6 242.5c-27.5 0-61.8-1-70.4-1.9v-6.1c6.6 0 10.9-4.5 10.9-10.3v-192.3c0-6.4-4.3-10.6-10.9-10.6v-6.4c10.6-1 45.9-2.3 69.7-2.3 51 0 78.5 27.1 78.5 108.7 0 83.5-22.9 121.2-77.8 121.2zm7-196.8c-4.6 0-24 0-26 .3v163.2c2 .3 21.7.3 24 .3 21.2 0 31.1-24.8 31.1-88.4 0-59.6-12.7-75.4-29.1-75.4zm-151.9-24.2v-6.4s-26.1.2-47 .1c0 0-4.6 5.3-4.6 18.2v160.7c0 12.9-9.3 19-20.2 19-10.3 0-19.9-5.2-19.9-19v-160.6c0-8.1 4.6-12.3 10.9-12.3v-6.1h-44.3s-6.6 6.2-6.6 18.4v164.5c0 8.7-.3 13.2-2.3 18.7 10.9 13.2 31.1 29.4 62.2 29.4 27.5 0 63.2-4.2 71.8-5.2v-6.1c-6.6 0-10.9-4.5-10.9-10.3v-192.3c0-6.5 4.3-10.7 10.9-10.7z" fill="#fff"/></svg>